<svg id="SvgjsSvg1001" width="861.5" height="569" xmlns="http://www.w3.org/2000/svg" version="1.1" xmlns:xlink="http://www.w3.org/1999/xlink" xmlns:svgjs="http://svgjs.com/svgjs"><defs id="SvgjsDefs1002"><marker id="SvgjsMarker1032" markerWidth="14" markerHeight="10" refX="10" refY="5" viewBox="0 0 14 10" orient="auto" markerUnits="userSpaceOnUse" stroke-dasharray="0,0"><path id="SvgjsPath1033" d="M0,0 L14,5 L0,10 L0,0" fill="#323232" stroke="#323232" stroke-width="1"></path></marker><pattern id="SvgjsPattern1044" x="0" y="0" width="92" height="91.54901960784314" patternUnits="userSpaceOnUse"><image id="SvgjsImage1045" xlink:href="https://cdn.processon.com/6299c1a15653bb0752fb3f1b-649be627b7f27147b071d542.svg?e=1687942199&amp;token=trhI0BY8QfVrIGn9nENop6JAc6l5nZuxhjQ62UfM:QlgnCv00ZxIxqnF3W_Oubp7jUuo=" width="92" height="91.54901960784314" preserveAspectRatio="none" crossOrigin="anonymous" x="0" y="0"></image></pattern><marker id="SvgjsMarker1060" markerWidth="14" markerHeight="10" refX="10" refY="5" viewBox="0 0 14 10" orient="auto" markerUnits="userSpaceOnUse" stroke-dasharray="0,0"><path id="SvgjsPath1061" d="M0,0 L14,5 L0,10 L0,0" fill="#323232" stroke="#323232" stroke-width="1"></path></marker><marker id="SvgjsMarker1070" markerWidth="14" markerHeight="10" refX="4" refY="5" viewBox="0 0 14 10" orient="auto" markerUnits="userSpaceOnUse" stroke-dasharray="0,0"><path id="SvgjsPath1071" d="M14,0 L0,5 L14,10 L14,0" fill="#323232" stroke="#323232" stroke-width="1"></path></marker><pattern id="SvgjsPattern1086" x="0" y="0" width="92" height="91.54901960784314" patternUnits="userSpaceOnUse"><image id="SvgjsImage1087" xlink:href="https://cdn.processon.com/6299c1a15653bb0752fb3f1b-649be627b7f27147b071d542.svg?e=1687942199&amp;token=trhI0BY8QfVrIGn9nENop6JAc6l5nZuxhjQ62UfM:QlgnCv00ZxIxqnF3W_Oubp7jUuo=" width="92" height="91.54901960784314" preserveAspectRatio="none" crossOrigin="anonymous" x="0" y="0"></image></pattern><marker id="SvgjsMarker1108" markerWidth="14" markerHeight="10" refX="10" refY="5" viewBox="0 0 14 10" orient="auto" markerUnits="userSpaceOnUse" stroke-dasharray="0,0"><path id="SvgjsPath1109" d="M0,0 L14,5 L0,10 L0,0" fill="#323232" stroke="#323232" stroke-width="1"></path></marker><marker id="SvgjsMarker1118" markerWidth="14" markerHeight="10" refX="4" refY="5" viewBox="0 0 14 10" orient="auto" markerUnits="userSpaceOnUse" stroke-dasharray="0,0"><path id="SvgjsPath1119" d="M14,0 L0,5 L14,10 L14,0" fill="#323232" stroke="#323232" stroke-width="1"></path></marker></defs><g id="SvgjsG1008" transform="translate(612.5,30)"><path id="SvgjsPath1009" d="M 0 0L 224 0L 224 514L 0 514Z" stroke-dasharray="10,6" stroke="rgba(166,166,166,1)" stroke-width="1.5" fill-opacity="1" fill="#ffffff"></path><g id="SvgjsG1010"><text id="SvgjsText1011" font-family="微软雅黑" text-anchor="middle" font-size="13px" width="204px" fill="#323232" font-weight="400" align="middle" lineHeight="125%" anchor="middle" family="微软雅黑" size="13px" weight="400" font-style="" opacity="1" y="246.375" transform="rotate(0)"></text></g></g><g id="SvgjsG1012" transform="translate(65.5,25)"><path id="SvgjsPath1013" d="M 0 0L 279 0L 279 519L 0 519Z" stroke-dasharray="10,6" stroke="rgba(166,166,166,1)" stroke-width="1.5" fill-opacity="1" fill="#ffffff"></path><g id="SvgjsG1014"><text id="SvgjsText1015" font-family="微软雅黑" text-anchor="middle" font-size="13px" width="259px" fill="#323232" font-weight="400" align="middle" lineHeight="125%" anchor="middle" family="微软雅黑" size="13px" weight="400" font-style="" opacity="1" y="248.875" transform="rotate(0)"></text></g></g><g id="SvgjsG1016" transform="translate(161.5,135)"><path id="SvgjsPath1017" d="M 0 0L 153 0L 153 57L 0 57Z" stroke="rgba(33,41,48,1)" stroke-width="2" fill-opacity="1" fill="#ffffff"></path><g id="SvgjsG1018"><text id="SvgjsText1019" font-family="微软雅黑" text-anchor="middle" font-size="16px" width="133px" fill="#323232" font-weight="400" align="middle" lineHeight="125%" anchor="middle" family="微软雅黑" size="16px" weight="400" font-style="" opacity="1" y="4.5" transform="rotate(0)"><tspan id="SvgjsTspan1020" dy="20" x="76.5"><tspan id="SvgjsTspan1021" style="text-decoration:;">DID</tspan></tspan><tspan id="SvgjsTspan1022" dy="20" x="76.5"><tspan id="SvgjsTspan1023" style="text-decoration:;">nonce</tspan></tspan></text></g></g><g id="SvgjsG1024" transform="translate(161.5,98)"><path id="SvgjsPath1025" d="M 0 0L 153 0L 153 39L 0 39Z" stroke="rgba(33,41,48,1)" stroke-width="2" fill-opacity="1" fill="#ffffff"></path><g id="SvgjsG1026"><text id="SvgjsText1027" font-family="微软雅黑" text-anchor="middle" font-size="16px" width="133px" fill="#323232" font-weight="700" align="middle" lineHeight="125%" anchor="middle" family="微软雅黑" size="16px" weight="700" font-style="" opacity="1" y="5.5" transform="rotate(0)"><tspan id="SvgjsTspan1028" dy="20" x="76.5"><tspan id="SvgjsTspan1029" style="text-decoration:;">USER</tspan></tspan></text></g></g><g id="SvgjsG1030"><path id="SvgjsPath1031" d="M586.5 151L484.5 151L484.5 151L382.5 151" stroke="#323232" stroke-width="2" fill="none" marker-end="url(#SvgjsMarker1032)"></path></g><g id="SvgjsG1034" transform="translate(430.5,90.5)"><path id="SvgjsPath1035" d="M 0 4Q 0 0 4 0L 92 0Q 96 0 96 4L 96 50Q 96 54 92 54L 4 54Q 0 54 0 50Z" stroke="rgba(33,41,48,1)" stroke-width="2" fill-opacity="1" fill="#ffffff"></path><g id="SvgjsG1036"><text id="SvgjsText1037" font-family="微软雅黑" text-anchor="middle" font-size="13px" width="76px" fill="#323232" font-weight="400" align="middle" lineHeight="125%" anchor="middle" family="微软雅黑" size="13px" weight="400" font-style="" opacity="1" y="7.875" transform="rotate(0)"><tspan id="SvgjsTspan1038" dy="16" x="48"><tspan id="SvgjsTspan1039" style="text-decoration:;">DID </tspan></tspan><tspan id="SvgjsTspan1040" dy="16" x="48"><tspan id="SvgjsTspan1041" style="text-decoration:;">Registry</tspan></tspan></text></g></g><g id="SvgjsG1042" transform="translate(653.5,90.5)"><path id="SvgjsPath1043" d="M 0 0L 92 0L 92 91.54901960784314L 0 91.54901960784314Z" stroke="none" fill="url(#SvgjsPattern1044)"></path></g><g id="SvgjsG1046" transform="translate(90,215)"><path id="SvgjsPath1047" d="M 0 0L 178 0L 178 40L 0 40Z" stroke="none" fill="none"></path><g id="SvgjsG1048"><text id="SvgjsText1049" font-family="微软雅黑" text-anchor="middle" font-size="17px" width="178px" fill="#323232" font-weight="700" align="middle" lineHeight="125%" anchor="middle" family="微软雅黑" size="17px" weight="700" font-style="" opacity="1" y="5.375" transform="rotate(0)"><tspan id="SvgjsTspan1050" dy="21" x="89"><tspan id="SvgjsTspan1051" style="text-decoration:;">2. 生成随机Nonce</tspan></tspan></text></g></g><g id="SvgjsG1052" transform="translate(25,97.5)"><path id="SvgjsPath1053" d="M 0 0L 178 0L 178 40L 0 40Z" stroke="none" fill="none"></path><g id="SvgjsG1054"><text id="SvgjsText1055" font-family="微软雅黑" text-anchor="middle" font-size="17px" width="178px" fill="#323232" font-weight="700" align="middle" lineHeight="125%" anchor="middle" family="微软雅黑" size="17px" weight="700" font-style="" opacity="1" y="5.375" transform="rotate(0)"><tspan id="SvgjsTspan1056" dy="21" x="89"><tspan id="SvgjsTspan1057" style="text-decoration:;">1.</tspan></tspan></text></g></g><g id="SvgjsG1058"><path id="SvgjsPath1059" d="M160.5 163.5L138.5 163.5L138.5 211.39999999999998" stroke="#323232" stroke-width="2" fill="none" marker-end="url(#SvgjsMarker1060)"></path></g><g id="SvgjsG1062" transform="translate(629,215)"><path id="SvgjsPath1063" d="M 0 0L 178 0L 178 40L 0 40Z" stroke="none" fill="none"></path><g id="SvgjsG1064"><text id="SvgjsText1065" font-family="微软雅黑" text-anchor="middle" font-size="17px" width="178px" fill="#323232" font-weight="700" align="middle" lineHeight="125%" anchor="middle" family="微软雅黑" size="17px" weight="700" font-style="" opacity="1" y="5.375" transform="rotate(0)"><tspan id="SvgjsTspan1066" dy="21" x="89"><tspan id="SvgjsTspan1067" style="text-decoration:;">3. 得到当前Nonce</tspan></tspan></text></g></g><g id="SvgjsG1068"><path id="SvgjsPath1069" d="M586.5 233L484.5 233L484.5 233L382.5 233" stroke="#323232" stroke-width="2" fill="none" marker-start="url(#SvgjsMarker1070)"></path><rect id="SvgjsRect1072" width="0" height="19" x="488.49999999999994" y="223.5" fill="#ffffff"></rect><text id="SvgjsText1073" font-family="微软雅黑" text-anchor="middle" font-size="15px" width="0px" fill="#323232" font-weight="400" align="top" lineHeight="19px" anchor="middle" family="微软雅黑" size="15px" weight="400" font-style="" opacity="1" y="220.625" transform="rotate(0)"></text><rect id="SvgjsRect1074" width="47" height="19" x="467" y="223.5" fill="#ffffff"></rect><text id="SvgjsText1075" font-family="微软雅黑" text-anchor="middle" font-size="15px" width="47px" fill="#323232" font-weight="400" align="top" lineHeight="19px" anchor="middle" family="微软雅黑" size="15px" weight="400" font-style="" opacity="1" y="220.625" transform="rotate(0)"><tspan id="SvgjsTspan1076" dy="18" x="490.5"><tspan id="SvgjsTspan1077" style="text-decoration:;">Nonce</tspan></tspan></text></g><g id="SvgjsG1078" transform="translate(614.5,343)"><path id="SvgjsPath1079" d="M 0 0L 178 0L 178 40L 0 40Z" stroke="none" fill="none"></path><g id="SvgjsG1080"><text id="SvgjsText1081" font-family="微软雅黑" text-anchor="middle" font-size="17px" width="178px" fill="#323232" font-weight="700" align="middle" lineHeight="125%" anchor="middle" family="微软雅黑" size="17px" weight="700" font-style="" opacity="1" y="5.375" transform="rotate(0)"><tspan id="SvgjsTspan1082" dy="21" x="89"><tspan id="SvgjsTspan1083" style="text-decoration:;">4. 签名Nonce</tspan></tspan></text></g></g><g id="SvgjsG1084" transform="translate(665.5,266.5)"><path id="SvgjsPath1085" d="M 0 0L 92 0L 92 91.54901960784314L 0 91.54901960784314Z" stroke="none" fill="url(#SvgjsPattern1086)"></path></g><g id="SvgjsG1088" transform="translate(74.5,343)"><path id="SvgjsPath1089" d="M 0 0L 178 0L 178 40L 0 40Z" stroke="none" fill="none"></path><g id="SvgjsG1090"><text id="SvgjsText1091" font-family="微软雅黑" text-anchor="middle" font-size="17px" width="178px" fill="#323232" font-weight="700" align="middle" lineHeight="125%" anchor="middle" family="微软雅黑" size="17px" weight="700" font-style="" opacity="1" y="5.375" transform="rotate(0)"><tspan id="SvgjsTspan1092" dy="21" x="89"><tspan id="SvgjsTspan1093" style="text-decoration:;">5. 验证签名</tspan></tspan></text></g></g><g id="SvgjsG1094" transform="translate(84.5,451)"><path id="SvgjsPath1095" d="M 0 0L 178 0L 178 40L 0 40Z" stroke="none" fill="none"></path><g id="SvgjsG1096"><text id="SvgjsText1097" font-family="微软雅黑" text-anchor="middle" font-size="17px" width="178px" fill="#323232" font-weight="700" align="middle" lineHeight="125%" anchor="middle" family="微软雅黑" size="17px" weight="700" font-style="" opacity="1" y="5.375" transform="rotate(0)"><tspan id="SvgjsTspan1098" dy="21" x="89"><tspan id="SvgjsTspan1099" style="text-decoration:;">6. 更新Nonce</tspan></tspan></text></g></g><g id="SvgjsG1100" transform="translate(614.5,451)"><path id="SvgjsPath1101" d="M 0 0L 178 0L 178 40L 0 40Z" stroke="none" fill="none"></path><g id="SvgjsG1102"><text id="SvgjsText1103" font-family="微软雅黑" text-anchor="middle" font-size="18px" width="178px" fill="#18ba77" font-weight="700" align="middle" lineHeight="125%" anchor="middle" family="微软雅黑" size="18px" weight="700" font-style="" opacity="1" y="4.25" transform="rotate(0)"><tspan id="SvgjsTspan1104" dy="22" x="89"><tspan id="SvgjsTspan1105" style="text-decoration:;">√ 登陆认证成功</tspan></tspan></text></g></g><g id="SvgjsG1106"><path id="SvgjsPath1107" d="M586.5 363L482 363L482 363L377.5 363" stroke="#323232" stroke-width="2" fill="none" marker-end="url(#SvgjsMarker1108)"></path><rect id="SvgjsRect1110" width="0" height="19" x="486.0980392156862" y="353.5" fill="#ffffff"></rect><text id="SvgjsText1111" font-family="微软雅黑" text-anchor="middle" font-size="15px" width="0px" fill="#323232" font-weight="400" align="top" lineHeight="19px" anchor="middle" family="微软雅黑" size="15px" weight="400" font-style="" opacity="1" y="350.625" transform="rotate(0)"></text><rect id="SvgjsRect1112" width="69" height="19" x="453.64705882352945" y="353.5" fill="#ffffff"></rect><text id="SvgjsText1113" font-family="微软雅黑" text-anchor="middle" font-size="15px" width="69px" fill="#323232" font-weight="400" align="top" lineHeight="19px" anchor="middle" family="微软雅黑" size="15px" weight="400" font-style="" opacity="1" y="350.625" transform="rotate(0)"><tspan id="SvgjsTspan1114" dy="18" x="488.14705882352945"><tspan id="SvgjsTspan1115" style="text-decoration:;">Signature</tspan></tspan></text></g><g id="SvgjsG1116"><path id="SvgjsPath1117" d="M582.5 471L481.5 471L481.5 471L380.5 471" stroke="#323232" stroke-width="2" fill="none" marker-start="url(#SvgjsMarker1118)"></path><rect id="SvgjsRect1120" width="0" height="19" x="485.4607843137254" y="461.5" fill="#ffffff"></rect><text id="SvgjsText1121" font-family="微软雅黑" text-anchor="middle" font-size="15px" width="0px" fill="#323232" font-weight="400" align="top" lineHeight="19px" anchor="middle" family="微软雅黑" size="15px" weight="400" font-style="" opacity="1" y="458.625" transform="rotate(0)"></text><rect id="SvgjsRect1122" width="109" height="19" x="432.94117647058823" y="461.5" fill="#ffffff"></rect><text id="SvgjsText1123" font-family="微软雅黑" text-anchor="middle" font-size="15px" width="109px" fill="#323232" font-weight="400" align="top" lineHeight="19px" anchor="middle" family="微软雅黑" size="15px" weight="400" font-style="" opacity="1" y="458.625" transform="rotate(0)"><tspan id="SvgjsTspan1124" dy="18" x="487.44117647058823"><tspan id="SvgjsTspan1125" style="text-decoration:;">JWT/session_id</tspan></tspan></text></g><g id="SvgjsG1126" transform="translate(152.5,30)"><path id="SvgjsPath1127" d="M 0 0L 100 0L 100 40L 0 40Z" stroke="none" fill="none"></path><g id="SvgjsG1128"><text id="SvgjsText1129" font-family="微软雅黑" text-anchor="middle" font-size="15px" width="100px" fill="#323232" font-weight="400" align="middle" lineHeight="125%" anchor="middle" family="微软雅黑" size="15px" weight="400" font-style="" opacity="1" y="7.625" transform="rotate(0)"><tspan id="SvgjsTspan1130" dy="18" x="50"><tspan id="SvgjsTspan1131" style="text-decoration:;">BACK END</tspan></tspan></text></g></g><g id="SvgjsG1132" transform="translate(674.5,30)"><path id="SvgjsPath1133" d="M 0 0L 100 0L 100 40L 0 40Z" stroke="none" fill="none"></path><g id="SvgjsG1134"><text id="SvgjsText1135" font-family="微软雅黑" text-anchor="middle" font-size="15px" width="100px" fill="#323232" font-weight="400" align="middle" lineHeight="125%" anchor="middle" family="微软雅黑" size="15px" weight="400" font-style="" opacity="1" y="7.625" transform="rotate(0)"><tspan id="SvgjsTspan1136" dy="18" x="50"><tspan id="SvgjsTspan1137" style="text-decoration:;">FRONT END</tspan></tspan></text></g></g></svg>